<?xml version="1.0" encoding="utf-8"?>
<!-- Generator: Adobe Illustrator 25.0.0, SVG Export Plug-In . SVG Version: 6.00 Build 0)  -->
<svg version="1.1" id="Layer_1" xmlns="http://www.w3.org/2000/svg" xmlns:xlink="http://www.w3.org/1999/xlink" x="0px" y="0px"
	 viewBox="0 0 16 16" style="enable-background:new 0 0 16 16;" xml:space="preserve">
<style type="text/css">
	.st0{fill:#212121;}
</style>
<path class="st0" d="M7.4,1.2L5.3,5.4L0.5,6.2C0.1,6.3-0.2,6.9,0.2,7.2l3.4,3.3l-0.8,4.7c-0.1,0.5,0.5,0.8,0.8,0.6l4.3-2.3l4.3,2.3
	c0.5,0.2,0.9-0.1,0.8-0.6l-0.8-4.7l3.7-3.3c0.4-0.4,0.1-0.9-0.4-1.1l-4.7-0.7L8.5,1.2C8.4,0.7,7.6,0.7,7.4,1.2z M8,12.4V2.7l1.8,3.6
	c0.1,0.1,0.2,0.4,0.5,0.4L14,7.2L11.2,10c-0.1,0.1-0.2,0.4-0.1,0.5l0.7,3.9l-3.4-1.8C8.1,12.4,8.1,12.4,8,12.4z"/>
</svg>
