<?xml version="1.0" encoding="utf-8"?>
<!-- Generator: Adobe Illustrator 25.0.0, SVG Export Plug-In . SVG Version: 6.00 Build 0)  -->
<svg version="1.1" id="Layer_1" xmlns="http://www.w3.org/2000/svg" xmlns:xlink="http://www.w3.org/1999/xlink" x="0px" y="0px"
	 viewBox="0 0 16 16" style="enable-background:new 0 0 16 16;" xml:space="preserve">
<style type="text/css">
	.st0{fill:#212121;}
</style>
<g>
	<path class="st0" d="M8,2.3l1.7,3.7L10,6.4l0.5,0.1l3.9,0.6l-2.8,2.7l-0.4,0.4l0.1,0.5l0.7,4l-3.6-1.9L8,12.6l-0.5,0.2l-3.6,1.9
		l0.7-4l0.1-0.5L4.3,9.8L1.5,7.1l4-0.6L6,6.4l0.2-0.5L8,2.3 M8,0.8c-0.2,0-0.4,0.1-0.5,0.3L5.4,5.5L0.6,6.2c-0.5,0.1-0.7,0.6-0.4,1
		l3.4,3.3l-0.8,4.8c0,0.4,0.3,0.7,0.6,0.7c0.1,0,0.2,0,0.3-0.1L8,13.7l4.3,2.2c0.1,0,0.2,0.1,0.3,0.1c0.4,0,0.7-0.3,0.6-0.7
		l-0.8-4.8l3.4-3.3c0.4-0.3,0.2-0.9-0.3-1l-4.8-0.7L8.6,1.1C8.4,0.9,8.2,0.8,8,0.8L8,0.8z"/>
</g>
</svg>
