<?xml version="1.0" encoding="utf-8"?>
<!-- Generator: Adobe Illustrator 25.0.0, SVG Export Plug-In . SVG Version: 6.00 Build 0)  -->
<svg version="1.1" id="Layer_1" xmlns="http://www.w3.org/2000/svg" xmlns:xlink="http://www.w3.org/1999/xlink" x="0px" y="0px"
	 viewBox="0 0 16 16" style="enable-background:new 0 0 16 16;" xml:space="preserve">
<style type="text/css">
	.st0{fill:#212121;}
</style>
<path class="st0" d="M7.6,1L5.4,5.4L0.5,6C0,6.1-0.2,6.7,0.2,7l3.5,3.5l-0.8,4.8c-0.1,0.5,0.4,0.8,0.8,0.6l4.4-2.3l4.3,2.3
	c0.4,0.2,0.9-0.1,0.8-0.6l-0.8-4.8L15.8,7c0.3-0.3,0.2-0.9-0.3-1l-4.8-0.7L8.6,1C8.4,0.4,7.8,0.4,7.6,1z M5.9,6.5
	c0.2,0,0.3-0.1,0.4-0.3l1.8-3.7l1.8,3.6c0.1,0.2,0.2,0.3,0.4,0.3l4,0.5l-2.8,2.8c-0.2,0.2-0.2,0.4-0.2,0.6l0.6,4l-3.5-1.9
	c-0.2-0.1-0.4-0.1-0.5,0l-2.1,1.2V6.5H5.9z"/>
</svg>
