<?xml version="1.0" encoding="utf-8"?>
<!-- Generator: Adobe Illustrator 25.0.0, SVG Export Plug-In . SVG Version: 6.00 Build 0)  -->
<svg version="1.1" id="Layer_1" xmlns="http://www.w3.org/2000/svg" xmlns:xlink="http://www.w3.org/1999/xlink" x="0px" y="0px"
	 viewBox="0 0 16 16" style="enable-background:new 0 0 16 16;" xml:space="preserve">
<style type="text/css">
	.st0{fill:#212121;}
</style>
<path class="st0" d="M10.6,5.5L8.5,1.1C8.4,0.9,8.2,0.8,8,0.8c-0.2,0-0.4,0.1-0.6,0.3L5.3,5.5L0.5,6.2C0,6.3-0.2,6.9,0.2,7.2
	l3.4,3.4l-0.8,4.7C2.7,15.8,3,16,3.4,16c0.1,0,0.2,0,0.3-0.1L8,13.7l4.3,2.2c0.1,0,0.1,0.1,0.2,0.1h0.1c0.3,0,0.6-0.3,0.6-0.7
	l-0.8-4.7l3.4-3.4c0.3-0.3,0.1-1-0.3-1L10.6,5.5z M10.4,13.7v-7l3.7,0.6l-2.9,2.8c-0.1,0.1-0.2,0.3-0.2,0.6l0.7,3.9L10.4,13.7z"/>
</svg>
